<svg width="38" height="38" viewBox="0 0 38 38" fill="none" xmlns="http://www.w3.org/2000/svg">
<path d="M32.3 1.8999H5.69999C3.60999 1.8999 1.89999 3.6099 1.89999 5.6999V32.2999C1.89999 34.3918 3.60999 36.0999 5.69999 36.0999H19V22.7999H15.2V18.0974H19V14.2024C19 10.0908 21.3028 7.2028 26.1554 7.2028L29.5811 7.2066V12.1561H27.3068C25.4182 12.1561 24.7 13.5735 24.7 14.8883V18.0993H29.5792L28.5 22.7999H24.7V36.0999H32.3C34.39 36.0999 36.1 34.3918 36.1 32.2999V5.6999C36.1 3.6099 34.39 1.8999 32.3 1.8999Z" fill="#02590F"/>
</svg>
