<svg width="38" height="38" viewBox="0 0 38 38" fill="none" xmlns="http://www.w3.org/2000/svg">
<path d="M19 0.759766C8.92621 0.759766 0.76001 8.92597 0.76001 18.9998C0.76001 29.0736 8.92621 37.2398 19 37.2398C29.0738 37.2398 37.24 29.0736 37.24 18.9998C37.24 8.92597 29.0738 0.759766 19 0.759766ZM17.9493 26.8297C16.8036 27.3864 15.5705 27.4453 15.0936 27.4453H14.8485C14.1037 27.4453 10.3968 27.2743 10.3968 23.898C10.3968 20.5806 14.4343 20.3203 15.6712 20.3203H15.7035C14.9891 19.3665 15.1373 18.4051 15.1373 18.4051C15.0487 18.4103 14.96 18.4128 14.8713 18.4127C14.4058 18.4127 13.5071 18.3386 12.7357 17.8408C11.7895 17.2328 11.3107 16.1973 11.3107 14.7647C11.3107 10.7158 15.732 10.5524 15.7757 10.5486H20.1913V10.6455C20.1913 11.1395 19.304 11.2364 18.6998 11.3181C18.4946 11.3485 18.0823 11.3884 17.9664 11.4473C19.0855 12.0458 19.266 12.9844 19.266 14.3828C19.266 15.975 18.6428 16.8167 17.9816 17.4076C17.5712 17.7743 17.2501 18.0612 17.2501 18.4469C17.2501 18.825 17.6909 19.2107 18.2039 19.661C19.0418 20.4001 20.1913 21.4052 20.1913 23.1019C20.1913 24.8556 19.437 26.1096 17.9493 26.8297ZM27.55 18.9998H24.7V21.8498H22.8V18.9998H19.95V17.0998H22.8V14.2498H24.7V17.0998H27.55V18.9998ZM15.6237 21.1848C15.5242 21.1848 15.4247 21.1886 15.3254 21.1962C14.5184 21.2426 13.7498 21.5561 13.1404 22.0873C12.5818 22.5927 12.2968 23.2311 12.3367 23.8752C12.4222 25.2261 13.8719 26.0165 15.6332 25.8911C17.366 25.7657 18.5212 24.7663 18.4376 23.4154C18.3578 22.1462 17.2539 21.1848 15.6237 21.1848V21.1848ZM17.2843 13.8413C16.8245 12.2263 16.0835 11.7475 14.9321 11.7475C14.8075 11.7484 14.6836 11.7656 14.5635 11.7988C14.0638 11.9413 13.6667 12.3574 13.4463 12.9768C13.2202 13.6038 13.2069 14.2574 13.4007 15.0022C13.7522 16.3341 14.6984 17.2993 15.6522 17.2993C15.7769 17.3005 15.9012 17.2832 16.0208 17.248C17.0639 16.9554 17.7175 15.3632 17.2843 13.8413V13.8413Z" fill="#02590F"/>
</svg>
