<svg width="38" height="38" viewBox="0 0 38 38" fill="none" xmlns="http://www.w3.org/2000/svg">
<path d="M24.7 18.9998C24.7 20.5115 24.0995 21.9613 23.0305 23.0303C21.9616 24.0992 20.5117 24.6998 19 24.6998C17.4883 24.6998 16.0385 24.0992 14.9695 23.0303C13.9005 21.9613 13.3 20.5115 13.3 18.9998C13.3 18.6749 13.3342 18.3576 13.3931 18.0498H11.4V25.6441C11.4 26.1723 11.8275 26.5998 12.3557 26.5998H25.6462C25.8994 26.5993 26.1419 26.4984 26.3208 26.3192C26.4996 26.14 26.6 25.8972 26.6 25.6441V18.0498H24.6069C24.6658 18.3576 24.7 18.6749 24.7 18.9998V18.9998ZM19 22.7998C19.4992 22.7996 19.9934 22.7012 20.4545 22.5101C20.9156 22.3189 21.3345 22.0389 21.6874 21.6858C22.0403 21.3328 22.3201 20.9137 22.511 20.4525C22.7019 19.9913 22.8001 19.497 22.8 18.9979C22.7999 18.4987 22.7014 18.0045 22.5103 17.5434C22.3192 17.0823 22.0391 16.6633 21.6861 16.3105C21.333 15.9576 20.9139 15.6777 20.4527 15.4868C19.9915 15.2959 19.4973 15.1977 18.9981 15.1979C17.99 15.1981 17.0234 15.5988 16.3107 16.3118C15.5981 17.0248 15.1979 17.9917 15.1981 18.9998C15.1984 20.0078 15.5991 20.9745 16.3121 21.6872C17.025 22.3998 17.9919 22.8 19 22.7998V22.7998ZM23.56 15.0098H25.8381C25.9895 15.0098 26.1346 14.9498 26.2418 14.8429C26.349 14.7361 26.4095 14.5911 26.41 14.4398V12.1617C26.41 12.01 26.3498 11.8645 26.2425 11.7573C26.1353 11.65 25.9898 11.5898 25.8381 11.5898H23.56C23.4083 11.5898 23.2629 11.65 23.1556 11.7573C23.0484 11.8645 22.9881 12.01 22.9881 12.1617V14.4398C22.99 14.7533 23.2465 15.0098 23.56 15.0098V15.0098ZM19 0.759766C14.1625 0.759766 9.52305 2.68147 6.10238 6.10214C2.68172 9.5228 0.76001 14.1622 0.76001 18.9998C0.76001 23.8373 2.68172 28.4767 6.10238 31.8974C9.52305 35.3181 14.1625 37.2398 19 37.2398C21.3953 37.2398 23.7672 36.768 25.9802 35.8513C28.1931 34.9347 30.2039 33.5911 31.8976 31.8974C33.5914 30.2037 34.9349 28.1929 35.8516 25.9799C36.7682 23.7669 37.24 21.3951 37.24 18.9998C37.24 16.6045 36.7682 14.2326 35.8516 12.0196C34.9349 9.80664 33.5914 7.79588 31.8976 6.10214C30.2039 4.4084 28.1931 3.06485 25.9802 2.1482C23.7672 1.23156 21.3953 0.759766 19 0.759766V0.759766ZM28.5 26.3889C28.5 27.5498 27.55 28.4998 26.3891 28.4998H11.6109C10.45 28.4998 9.50001 27.5498 9.50001 26.3889V11.6107C9.50001 10.4498 10.45 9.49977 11.6109 9.49977H26.3891C27.55 9.49977 28.5 10.4498 28.5 11.6107V26.3889V26.3889Z" fill="#02590F"/>
</svg>
