<svg width="38" height="38" viewBox="0 0 38 38" fill="none" xmlns="http://www.w3.org/2000/svg">
<path d="M19 0.759766C8.92621 0.759766 0.76001 8.92597 0.76001 18.9998C0.76001 29.0736 8.92621 37.2398 19 37.2398C29.0738 37.2398 37.24 29.0736 37.24 18.9998C37.24 8.92597 29.0738 0.759766 19 0.759766ZM26.4195 15.7014C26.4271 15.8572 26.429 16.013 26.429 16.165C26.429 20.915 22.8171 26.3889 16.2089 26.3889C14.2563 26.3921 12.3442 25.8313 10.7027 24.7739C10.982 24.8081 11.2689 24.8214 11.5596 24.8214C13.243 24.8214 14.7915 24.2495 16.0208 23.2843C15.2717 23.2696 14.5458 23.0215 13.9443 22.5747C13.3429 22.1278 12.8958 21.5045 12.6654 20.7915C13.2034 20.8938 13.7576 20.8723 14.2861 20.7288C13.473 20.5643 12.7418 20.1238 12.2165 19.4817C11.6911 18.8397 11.404 18.0357 11.4038 17.2062V17.1625C11.8883 17.4304 12.4431 17.5938 13.0321 17.6128C12.2698 17.1053 11.7302 16.3258 11.5236 15.4337C11.317 14.5416 11.459 13.6042 11.9206 12.8134C12.823 13.923 13.9484 14.8307 15.2239 15.4778C16.4994 16.1248 17.8965 16.4968 19.3249 16.5697C19.1433 15.7989 19.2215 14.9896 19.5472 14.2678C19.873 13.546 20.4281 12.952 21.1262 12.5783C21.8244 12.2045 22.6265 12.0718 23.4078 12.2009C24.1891 12.33 24.9059 12.7137 25.4467 13.2922C26.2507 13.1331 27.0218 12.8382 27.7267 12.4201C27.4587 13.2525 26.8977 13.9594 26.1478 14.4094C26.86 14.3236 27.5555 14.1321 28.2112 13.8413C27.7295 14.5631 27.1228 15.193 26.4195 15.7014V15.7014Z" fill="#02590F"/>
</svg>
